<?xml version="1.0" standalone="no"?>
<!DOCTYPE svg PUBLIC "-//W3C//DTD SVG 1.1//EN" "http://www.w3.org/Graphics/SVG/1.1/DTD/svg11.dtd">
<svg t="1521551305767" class="icon" style="" viewBox="0 0 1024 1024" version="1.1" xmlns="http://www.w3.org/2000/svg" p-id="1388" xmlns:xlink="http://www.w3.org/1999/xlink" width="200" height="200">
<defs>
  <style type="text/css"></style>
</defs>
<g transform="translate(270 22) scale(2 1.8)">
  <path
    d="M162.47,579.26,148,574.47s1.84-73.22-24.56-78.35c-17.41-20.18,2.68-861.89,65.94-2.89,0,0-21.65,10.87-25.75,29.34S162.47,579.26,162.47,579.26Z" 
    transform="translate(-29.22 -39.87)" fill="#b6b599"
  />
  <path 
    d="M170.27,508.55S296,425.75,266.54,253.79C238.17,128.86,171.21,87.79,164,72.11c-7.92-11.1-15.9-30.76-15.9-30.76l5.35,348.09S142.39,495.73,170.27,508.55Z" 
    transform="translate(-29.22 -39.87)" fill="#439a45"
  />
  <path 
    d="M140.65,513.17S22.72,432.73,29.51,290.79,119.58,79.05,135.8,66.39c10.49-11.18,10.92-15.49,11.73-26.52,7.35,15.79,6.13,235.85,6.91,261.57C157.47,401.57,148.9,494.27,140.65,513.17Z" 
    transform="translate(-29.22 -39.87)" fill="#54ab4e"
  />
</g>

<g transform="translate(512 512) scale(1.5 1.5)">
  <clipPath id="d">
    <path d="M-500-132.03H500v241.4H-500z"/>
  </clipPath>
  <g clip-path="url(#d)" fill-rule="nonzero">
    <path d="M-241.8 140.2c4 0 7.3 1.4 10.1 4.2 2.8 2.8 4.2 6.2 4.2 10.1v49.6h-50.7c-4 0-7.3-1.4-10.1-4.2-2.8-2.8-4.2-6.2-4.2-10.1v-23.6h53.1v-11.7c0-.7-.2-1.2-.7-1.7-.5-.5-1-.7-1.7-.7h-50.7v-11.9h50.7zm2.4 52v-14.1h-41.2v11.7c0 .7.2 1.2.7 1.7.5.5 1 .7 1.7.7h38.8zm114.7-52h12.7l-24 63.9h-9.7l-21.5-47.5-20.3 47.5-.2-.1.1.1h-9.6l-25.1-63.9h12.6l17.3 42.4 18.4-42.4h13.6l19.5 42.4 16.2-42.4zm67.2 0c4 0 7.3 1.4 10.1 4.2 2.8 2.8 4.2 6.2 4.2 10.1v23.6h-53.1v11.7c0 .7.2 1.2.7 1.7.5.5 1 .7 1.7.7h50.7v11.9h-50.7c-4 0-7.3-1.4-10.1-4.2-2.8-2.8-4.2-6.2-4.2-10.1v-35.3c0-4 1.4-7.3 4.2-10.1 2.8-2.8 6.2-4.2 10.1-4.2h36.4zm-38.8 26h41.2v-11.7c0-.7-.2-1.2-.7-1.7-.5-.5-1-.7-1.7-.7h-36.4c-.7 0-1.2.2-1.7.7-.5.5-.7 1-.7 1.7v11.7zm129-11.6v2.4H20.8v-2.4c0-.7-.2-1.2-.7-1.7-.5-.5-1-.7-1.7-.7H-18c-.7 0-1.2.2-1.7.7-.5.5-.7 1-.7 1.7v9.3c0 .7.2 1.2.7 1.7.5.5 1 .7 1.7.7h36.4c4 0 7.3 1.4 10.1 4.2 2.8 2.8 4.2 6.2 4.2 10.1v9.3c0 4-1.4 7.3-4.2 10.1-2.8 2.8-6.2 4.2-10.1 4.2H-18c-4 0-7.3-1.4-10.1-4.2-2.8-2.8-4.2-6.2-4.2-10.1v-2.4h11.9v2.4c0 .7.2 1.2.7 1.7.5.5 1 .7 1.7.7h36.4c.7 0 1.2-.2 1.7-.7.5-.5.7-1 .7-1.7v-9.3c0-.7-.2-1.2-.7-1.7-.5-.5-1-.7-1.7-.7H-18c-4 0-7.3-1.4-10.1-4.2-2.8-2.8-4.2-6.2-4.2-10.1v-9.3c0-4 1.4-7.3 4.2-10.1 2.8-2.8 6.2-4.2 10.1-4.2h36.4c4 0 7.3 1.4 10.1 4.2 2.8 2.7 4.2 6.1 4.2 10.1zm25.2-14.4h36.4c4 0 7.3 1.4 10.1 4.2 2.8 2.8 4.2 6.2 4.2 10.1v35.3c0 4-1.4 7.3-4.2 10.1-2.8 2.8-6.2 4.2-10.1 4.2H57.9c-4 0-7.3-1.4-10.1-4.2-2.8-2.8-4.2-6.2-4.2-10.1v-35.3c0-4 1.4-7.3 4.2-10.1 2.8-2.8 6.2-4.2 10.1-4.2zm36.4 11.9H57.9c-.7 0-1.2.2-1.7.7-.5.5-.7 1-.7 1.7v35.3c0 .7.2 1.2.7 1.7.5.5 1 .7 1.7.7h36.4c.7 0 1.2-.2 1.7-.7.5-.5.7-1 .7-1.7v-35.3c0-.7-.2-1.2-.7-1.7-.5-.4-1-.7-1.7-.7zm107.5-11.9c4 0 7.3 1.4 10.1 4.2 2.8 2.8 4.2 6.2 4.2 10.1v49.6h-11.8v-49.6c0-.7-.2-1.2-.7-1.7-.5-.5-1.1-.7-1.8-.7h-25.2c-.7 0-1.2.2-1.7.7-.5.5-.7 1-.7 1.7v49.6h-11.9v-49.6c0-.7-.2-1.2-.7-1.7-.5-.5-1-.7-1.7-.7h-25.3c-.7 0-1.2.2-1.7.7-.5.5-.7 1-.7 1.7v49.6h-11.9v-63.9h81.5zm76.5 0c4 0 7.3 1.4 10.1 4.2 2.8 2.8 4.2 6.2 4.2 10.1v23.6h-53.1v11.7c0 .7.2 1.2.7 1.7.5.5 1 .7 1.7.7h50.7v11.9h-50.7c-4 0-7.3-1.4-10.1-4.2-2.8-2.8-4.2-6.2-4.2-10.1v-35.3c0-4 1.4-7.3 4.2-10.1 2.8-2.8 6.2-4.2 10.1-4.2h36.4zm-38.8 26h41.2v-11.7c0-.7-.2-1.2-.7-1.7-.5-.5-1-.7-1.7-.7h-36.4c-.7 0-1.2.2-1.7.7-.5.5-.7 1-.7 1.7v11.7z" fill="#494368"/>
    <path d="M292.5-91.9l-150-137.6-21.1 23 125 114.6h-492.7l125-114.7-21.1-23-150 137.7h-.1v90.7c0 41 39.5 74.4 88 74.4h92.5c48.5 0 88-33.4 88-74.4v-59.6h48v59.6c0 41 39.5 74.4 88 74.4h92.5c48.5 0 88-33.4 88-74.4v-90.7z" fill="#333"/>
  </g>
</g>
</svg>
