<?xml version="1.0" standalone="no"?>
<!DOCTYPE svg PUBLIC "-//W3C//DTD SVG 1.1//EN" "http://www.w3.org/Graphics/SVG/1.1/DTD/svg11.dtd">
<svg t="1521551305767" class="icon" style="" viewBox="0 0 1024 1024" version="1.1" xmlns="http://www.w3.org/2000/svg" p-id="1388" xmlns:xlink="http://www.w3.org/1999/xlink" width="200" height="200">
<defs>
  <style type="text/css"></style>
</defs>
<g transform="translate(100 100) scale(.8, .75)">
  <path d="M733.013333 406.101333c-53.888-237.226667-180.992-315.178667-194.645333-345.002666C523.349333 40.064 507.093333 0 507.093333 0l-0.213333 2.090667v0.554666h-0.042667a24.490667 24.490667 0 0 0-0.170666 1.664v0.64h-0.085334l-0.085333 1.109334v1.109333h-0.128c-0.042667 0.341333-0.042667 0.768-0.128 1.066667v0.896h-0.085333c0 0.298667 0 0.64-0.085334 0.896v0.853333h-0.085333l-0.085333 1.365333v0.085334l-0.384 2.133333v0.341333h-0.085334l-0.128 0.512v0.725334h-0.128v0.938666h-0.213333v0.768h-0.213333v0.896h-0.170667v0.810667h-0.170667v0.725333h-0.256v0.597334h-0.170666v0.768h-0.170667v0.597333h-0.213333v0.554667H503.466667v0.64h-0.170667l-0.042667 0.170666v0.426667h-0.128l-0.042666 0.256v0.256h-0.085334a1.877333 1.877333 0 0 0-0.085333 0.426667l-0.426667 0.896v0.085333a1.28 1.28 0 0 0-0.213333 0.298667v0.341333h-0.170667v0.341333h-0.213333v0.341334h-0.128v0.426666h-0.256v0.597334h-0.170667v0.170666h-0.170666v0.341334h-0.170667v0.469333h-0.170667v0.341333h-0.256v0.469334h-0.170666v0.341333h-0.213334v0.341333h-0.128v0.426667h-0.213333v0.341333h-0.170667v0.256h-0.170666v0.341334h-0.256V32.426667h-0.170667v0.256h-0.213333v0.341333h-0.170667v0.469333h-0.213333v0.170667h-0.128v0.341333h-0.256v0.170667h-0.170667v0.426667h-0.170667v0.170666h-0.170666v0.341334h-0.213334v0.256h-0.128l-0.085333 0.170666v0.170667h-0.085333l-0.085334 0.170667v0.042666h-0.042666a0.682667 0.682667 0 0 1-0.170667 0.298667v0.128h-0.042667L496.213333 37.12v0.042667c-0.085333 0.085333-0.298667 0.256-0.384 0.426666v0.085334h-0.042666l-0.128 0.128v0.128h-0.085334l-0.128 0.128v0.042666h-0.042666l-0.128 0.170667v0.170667h-0.128l-0.085334 0.085333v0.085333h-0.085333c0 0.085333-0.085333 0.085333-0.085333 0.128v0.128h-0.170667l-0.085333 0.128V39.253333h-0.128v0.170667h-0.170667V39.68h-0.170667v0.341333h-0.213333V39.68h-0.213333v0.170667h-0.170667V40.106667h-0.213333v0.341333h-0.213334v0.170667h-0.170666v0.256h-0.170667v0.170666h-0.170667V41.386667h-0.256v0.170666h-0.170666V41.813333h-0.213334v0.170667h-0.170666v0.213333h-0.213334v0.426667h-0.085333v0.170667h-0.256v0.213333h-0.170667v0.085333h-0.170666v0.170667h-0.213334v0.426667h-0.170666v0.170666h-0.213334v0.170667h-0.170666v0.256h-0.213334v0.170667h-0.213333v0.170666h-0.170667v0.170667h-0.170666v0.426667h-0.170667v0.213333h-0.256v0.170667h-0.170667v0.170666h-0.213333v0.256h-0.170667v0.170667h-0.213333v0.298667h-0.170667v0.170666h-0.256V46.933333h-0.085333v0.170667h-0.170667v0.170667h-0.213333v0.170666h-0.170667v0.256h-0.213333v0.170667h-0.128l-0.042667 0.085333v0.085334h-0.085333l-0.170667 0.170666-0.170666 0.128v0.256h-0.170667v0.213334h-0.170667v0.170666h-0.170666v0.170667h-0.128l-0.128 0.128v0.128h-0.085334l-0.085333 0.085333v0.128h-0.085333c-0.213333 0.256-0.298667 0.426667-0.597334 0.682667a15.616 15.616 0 0 0-2.176 1.792l-0.938666 0.725333v0.042667h-0.042667a120.362667 120.362667 0 0 1-2.090667 1.664v0.042667l-3.157333 2.645333V57.173333h-0.085333c-2.432 2.005333-4.992 4.266667-7.936 6.784V64h-0.042667c-7.210667 6.314667-15.786667 14.421333-25.386667 24.234667l-0.64 0.64-0.170666 0.170666C384 149.077333 292.565333 274.176 282.922667 476.330667c-0.853333 16.725333-0.682667 32.981333 0.256 48.810666v0.384c4.650667 79.658667 29.653333 147.669333 60.928 202.922667v0.042667c12.458667 22.016 25.898667 42.026667 39.509333 59.946666v0.042667c47.018667 62.08 95.018667 98.858667 107.264 107.776 18.816 43.648 17.066667 118.570667 17.066667 118.570667l27.477333 9.173333s-5.589333-72.576 2.261333-107.605333c2.432-10.965333 8.192-20.309333 14.890667-28.245334a357.546667 357.546667 0 0 0 34.005333-27.52c0.768-0.810667 1.194667-1.536 1.877334-2.304 64.896-60.501333 186.112-209.493333 144.554666-452.224z" fill="#519b39" p-id="3985"></path>
</g>

<g transform="translate(512 512)">
  <clipPath id="d">
    <path d="M-500-132.03H500v241.4H-500z"/>
  </clipPath>
  <g clip-path="url(#d)" fill-rule="nonzero">
    <path d="M-241.8 140.2c4 0 7.3 1.4 10.1 4.2 2.8 2.8 4.2 6.2 4.2 10.1v49.6h-50.7c-4 0-7.3-1.4-10.1-4.2-2.8-2.8-4.2-6.2-4.2-10.1v-23.6h53.1v-11.7c0-.7-.2-1.2-.7-1.7-.5-.5-1-.7-1.7-.7h-50.7v-11.9h50.7zm2.4 52v-14.1h-41.2v11.7c0 .7.2 1.2.7 1.7.5.5 1 .7 1.7.7h38.8zm114.7-52h12.7l-24 63.9h-9.7l-21.5-47.5-20.3 47.5-.2-.1.1.1h-9.6l-25.1-63.9h12.6l17.3 42.4 18.4-42.4h13.6l19.5 42.4 16.2-42.4zm67.2 0c4 0 7.3 1.4 10.1 4.2 2.8 2.8 4.2 6.2 4.2 10.1v23.6h-53.1v11.7c0 .7.2 1.2.7 1.7.5.5 1 .7 1.7.7h50.7v11.9h-50.7c-4 0-7.3-1.4-10.1-4.2-2.8-2.8-4.2-6.2-4.2-10.1v-35.3c0-4 1.4-7.3 4.2-10.1 2.8-2.8 6.2-4.2 10.1-4.2h36.4zm-38.8 26h41.2v-11.7c0-.7-.2-1.2-.7-1.7-.5-.5-1-.7-1.7-.7h-36.4c-.7 0-1.2.2-1.7.7-.5.5-.7 1-.7 1.7v11.7zm129-11.6v2.4H20.8v-2.4c0-.7-.2-1.2-.7-1.7-.5-.5-1-.7-1.7-.7H-18c-.7 0-1.2.2-1.7.7-.5.5-.7 1-.7 1.7v9.3c0 .7.2 1.2.7 1.7.5.5 1 .7 1.7.7h36.4c4 0 7.3 1.4 10.1 4.2 2.8 2.8 4.2 6.2 4.2 10.1v9.3c0 4-1.4 7.3-4.2 10.1-2.8 2.8-6.2 4.2-10.1 4.2H-18c-4 0-7.3-1.4-10.1-4.2-2.8-2.8-4.2-6.2-4.2-10.1v-2.4h11.9v2.4c0 .7.2 1.2.7 1.7.5.5 1 .7 1.7.7h36.4c.7 0 1.2-.2 1.7-.7.5-.5.7-1 .7-1.7v-9.3c0-.7-.2-1.2-.7-1.7-.5-.5-1-.7-1.7-.7H-18c-4 0-7.3-1.4-10.1-4.2-2.8-2.8-4.2-6.2-4.2-10.1v-9.3c0-4 1.4-7.3 4.2-10.1 2.8-2.8 6.2-4.2 10.1-4.2h36.4c4 0 7.3 1.4 10.1 4.2 2.8 2.7 4.2 6.1 4.2 10.1zm25.2-14.4h36.4c4 0 7.3 1.4 10.1 4.2 2.8 2.8 4.2 6.2 4.2 10.1v35.3c0 4-1.4 7.3-4.2 10.1-2.8 2.8-6.2 4.2-10.1 4.2H57.9c-4 0-7.3-1.4-10.1-4.2-2.8-2.8-4.2-6.2-4.2-10.1v-35.3c0-4 1.4-7.3 4.2-10.1 2.8-2.8 6.2-4.2 10.1-4.2zm36.4 11.9H57.9c-.7 0-1.2.2-1.7.7-.5.5-.7 1-.7 1.7v35.3c0 .7.2 1.2.7 1.7.5.5 1 .7 1.7.7h36.4c.7 0 1.2-.2 1.7-.7.5-.5.7-1 .7-1.7v-35.3c0-.7-.2-1.2-.7-1.7-.5-.4-1-.7-1.7-.7zm107.5-11.9c4 0 7.3 1.4 10.1 4.2 2.8 2.8 4.2 6.2 4.2 10.1v49.6h-11.8v-49.6c0-.7-.2-1.2-.7-1.7-.5-.5-1.1-.7-1.8-.7h-25.2c-.7 0-1.2.2-1.7.7-.5.5-.7 1-.7 1.7v49.6h-11.9v-49.6c0-.7-.2-1.2-.7-1.7-.5-.5-1-.7-1.7-.7h-25.3c-.7 0-1.2.2-1.7.7-.5.5-.7 1-.7 1.7v49.6h-11.9v-63.9h81.5zm76.5 0c4 0 7.3 1.4 10.1 4.2 2.8 2.8 4.2 6.2 4.2 10.1v23.6h-53.1v11.7c0 .7.2 1.2.7 1.7.5.5 1 .7 1.7.7h50.7v11.9h-50.7c-4 0-7.3-1.4-10.1-4.2-2.8-2.8-4.2-6.2-4.2-10.1v-35.3c0-4 1.4-7.3 4.2-10.1 2.8-2.8 6.2-4.2 10.1-4.2h36.4zm-38.8 26h41.2v-11.7c0-.7-.2-1.2-.7-1.7-.5-.5-1-.7-1.7-.7h-36.4c-.7 0-1.2.2-1.7.7-.5.5-.7 1-.7 1.7v11.7z" fill="#494368"/>
    <path d="M292.5-91.9l-150-137.6-21.1 23 125 114.6h-492.7l125-114.7-21.1-23-150 137.7h-.1v90.7c0 41 39.5 74.4 88 74.4h92.5c48.5 0 88-33.4 88-74.4v-59.6h48v59.6c0 41 39.5 74.4 88 74.4h92.5c48.5 0 88-33.4 88-74.4v-90.7z" fill="#000"/>
  </g>
</g>
</svg>
