<?xml version="1.0" standalone="no"?><!DOCTYPE svg PUBLIC "-//W3C//DTD SVG 1.1//EN" "http://www.w3.org/Graphics/SVG/1.1/DTD/svg11.dtd"><svg t="1521557369714" class="icon" style="" viewBox="0 0 1024 1024" version="1.1" xmlns="http://www.w3.org/2000/svg" p-id="5334" xmlns:xlink="http://www.w3.org/1999/xlink" width="64" height="64"><defs><style type="text/css"></style></defs><path d="M779.95324 65.376986 243.998665 65.376986c-98.623181 0-178.709171 79.95603-178.709171 178.667216l0 535.9996c0 98.625228 80.08599 178.579211 178.709171 178.579211l535.954575 0c98.755188 0 178.75522-79.953983 178.75522-178.579211L958.70846 244.044202C958.70846 145.333016 878.708428 65.376986 779.95324 65.376986zM869.286848 735.289506c0 74.109882-59.932997 134.042879-133.954875 134.042879L288.623002 869.332385c-73.979922 0-133.912919-59.932997-133.912919-134.042879L154.710083 288.711518c0-73.979922 59.932997-134.044926 133.912919-134.044926l446.708971 0c74.021877 0 133.954875 60.065004 133.954875 134.044926L869.286848 735.289506zM735.375975 373.464807l0 276.984429c25.908066 9.247618 44.578288 33.500998 44.578288 62.551638 0 36.988426-30.009478 66.998927-66.998927 66.998927-36.990472 0-66.912969-30.009478-66.912969-66.998927 0-29.05064 18.755156-53.30402 44.665269-62.551638L690.707636 373.550765 361.205087 670.078295c10.207479 11.516288 16.836457 26.216081 16.836457 42.922578 0 36.988426-30.009478 66.998927-66.998927 66.998927-36.990472 0-67.000973-30.009478-67.000973-66.998927 0-29.05064 18.669198-53.30402 44.579311-62.551638L288.620955 373.464807c-25.910113-9.247618-44.579311-33.412994-44.579311-62.551638 0-36.988426 30.009478-66.912969 67.000973-66.912969 36.988426 0 66.998927 29.92352 66.998927 66.912969 0 29.138644-18.84316 53.30402-44.753273 62.551638l0 276.984429 329.502549-296.52753c-10.207479-11.602246-16.748453-26.214035-16.748453-43.008536 0-36.988426 29.921473-66.912969 66.912969-66.912969 36.988426 0 66.998927 29.92352 66.998927 66.912969C779.95324 340.05079 761.284041 364.217189 735.375975 373.464807z" p-id="5335"></path></svg>