<?xml version="1.0" standalone="no"?><!DOCTYPE svg PUBLIC "-//W3C//DTD SVG 1.1//EN" "http://www.w3.org/Graphics/SVG/1.1/DTD/svg11.dtd"><svg t="1521557337122" class="icon" style="" viewBox="0 0 1025 1024" version="1.1" xmlns="http://www.w3.org/2000/svg" p-id="3754" xmlns:xlink="http://www.w3.org/1999/xlink" width="64.0625" height="64"><defs><style type="text/css"></style></defs><path d="M512.432017 706.601919c-1.183963 0-2.367926 0-3.551889 0-281.015218 0-508.304115-68.253867-508.368113-120.668229l-0.511984-205.849567c0-0.31999 0.127996-0.607981 0.127996-0.863973 46.270554 21.951314 100.636855 32.062998 133.147839 38.110809 101.020843 18.783413 234.456673 29.151089 375.604262 29.151089l3.551889 0c142.043561-0.159995 276.247367-10.783663 378.004187-29.887066 32.542983-6.111809 86.71729-16.287491 133.019843-38.110809 0 0.095997 0 0.287991 0 0.287991l0.543983 205.849567C1024.064028 637.260086 795.111183 706.217931 512.432017 706.601919zM512.432017 384.499984c-1.183963 0-2.367926 0-3.551889 0-281.015218 0-508.304115-62.270054-508.368113-114.684416l-0.511984-173.882566C-0.095967 43.326646 228.984874 0.351989 511.664041 0c1.247961 0 2.431924 0 3.679885 0 280.919221 0 508.048123 42.23868 508.112121 94.653042l0.543983 173.882566C1024.064028 321.141964 795.111183 384.115996 512.432017 384.499984zM508.848129 768.615981l3.551889 0c142.043561-0.191994 276.279366-16.767476 378.004187-35.870879 32.542983-6.111809 86.71729-16.287491 133.051842-38.142808l0.511984 233.464704c0.063998 52.638355-228.888847 95.581013-511.568013 95.933002-1.215962 0-2.367926 0-3.615887 0-280.95122 0-508.240117-42.23868-508.304115-94.621043L3.0e-05 695.306272c46.270554 21.983313 100.668854 32.094997 133.243836 38.142808C234.264709 752.264492 367.668541 768.615981 508.848129 768.615981z" p-id="3755"></path></svg>