<?xml version="1.0" standalone="no"?>
<!DOCTYPE svg PUBLIC "-//W3C//DTD SVG 1.1//EN" "http://www.w3.org/Graphics/SVG/1.1/DTD/svg11.dtd">
<svg t="1521874721058" class="icon" style="" viewBox="0 0 1024 1024" version="1.1" xmlns="http://www.w3.org/2000/svg" p-id="1570" xmlns:xlink="http://www.w3.org/1999/xlink" width="200" height="200">
  <defs>
    <style type="text/css"></style>
  </defs>
  <path d="M887.653147 861.950254c0 53.44012-43.324738 96.762811-96.764857 96.762811L230.594377 958.713065c-53.44012 0-96.763834-43.322691-96.763834-96.762811L133.830543 162.05077c0-53.439096 43.323715-96.763834 96.763834-96.763834l560.294936 0c53.44012 0 96.764857 43.323715 96.764857 96.763834L887.65417 861.950254zM831.814398 162.05077c0-22.602787-18.322297-40.925085-40.925085-40.925085L230.594377 121.125685c-22.602787 0-40.925085 18.322297-40.925085 40.925085l0 699.898461c0 22.602787 18.322297 40.924061 40.925085 40.924061l560.294936 0c22.602787 0 40.925085-18.321274 40.925085-40.924061L831.814398 162.05077z" p-id="1571"></path>
  <path d="M329.266677 944.754145c-7.715729 0-13.959943-6.244214-13.959943-13.960966L315.306734 93.206822c0-7.716752 6.244214-13.959943 13.959943-13.959943 7.702426 0 13.959943 6.244214 13.959943 13.959943l0 837.586356C343.22662 938.50993 336.96808 944.754145 329.266677 944.754145z" p-id="1572"></path>
</svg>