<?xml version="1.0" standalone="no"?><!DOCTYPE svg PUBLIC "-//W3C//DTD SVG 1.1//EN" "http://www.w3.org/Graphics/SVG/1.1/DTD/svg11.dtd"><svg t="1521557280191" class="icon" style="" viewBox="0 0 1024 1024" version="1.1" xmlns="http://www.w3.org/2000/svg" p-id="3041" xmlns:xlink="http://www.w3.org/1999/xlink" width="64" height="64"><defs><style type="text/css"></style></defs><path d="M809.021787 916.341025l-590.652338 0c-48.40443 0-87.799672-39.395242-87.799672-87.799672l0-654.506644c0-48.40443 39.395242-87.799672 87.799672-87.799672l590.652338 0c48.40443 0 87.799672 39.395242 87.799672 87.799672l0 654.506644C896.821459 876.945783 857.426217 916.341025 809.021787 916.341025zM218.36945 134.125767c-22.01234 0-39.908942 17.896602-39.908942 39.908942l0 654.506644c0 22.01234 17.896602 39.908942 39.908942 39.908942l590.652338 0c22.01234 0 39.908942-17.896602 39.908942-39.908942l0-654.506644c0-22.01234-17.896602-39.908942-39.908942-39.908942L218.36945 134.125767z" p-id="3042"></path><path d="M322.132698 708.814528l383.125841 0 0 31.927153-383.125841 0 0-31.927153Z" p-id="3043"></path><path d="M322.132698 389.542994l383.125841 0 0 31.927153-383.125841 0 0-31.927153Z" p-id="3044"></path><path d="M322.132698 245.870804l383.125841 0 0 31.927153-383.125841 0 0-31.927153Z" p-id="3045"></path><path d="M322.132698 549.178761l383.125841 0 0 31.927153-383.125841 0 0-31.927153Z" p-id="3046"></path></svg>