<?xml version="1.0" standalone="no"?><!DOCTYPE svg PUBLIC "-//W3C//DTD SVG 1.1//EN" "http://www.w3.org/Graphics/SVG/1.1/DTD/svg11.dtd"><svg t="1521859793422" class="icon" style="" viewBox="0 0 1024 1024" version="1.1" xmlns="http://www.w3.org/2000/svg" p-id="3497" xmlns:xlink="http://www.w3.org/1999/xlink" width="64" height="64"><defs><style type="text/css"></style></defs><path d="M640 810.666667 384 810.666667c-25.6 0-42.666667-17.066667-42.666667-42.666667l0-21.333333c0-59.733333-25.6-119.466667-72.533333-166.4C200.533333 512 166.4 422.4 170.666667 328.533333 179.2 149.333333 328.533333 4.266667 507.733333 0L512 0c187.733333 0 341.333333 153.6 341.333333 341.333333 0 89.6-34.133333 179.2-102.4 243.2-46.933333 42.666667-68.266667 102.4-68.266667 162.133333L682.666667 768C682.666667 793.6 665.6 810.666667 640 810.666667zM426.666667 725.333333l170.666667 0c4.266667-76.8 38.4-145.066667 93.866667-204.8C742.4 473.6 768 409.6 768 341.333333c0-140.8-115.2-256-256-256l-4.266667 0C375.466667 89.6 260.266667 196.266667 256 332.8 251.733333 401.066667 281.6 469.333333 328.533333 520.533333 388.266667 580.266667 422.4 652.8 426.666667 725.333333z" p-id="3498"></path><path d="M512 1024 512 1024c-93.866667 0-170.666667-76.8-170.666667-170.666667l0-85.333333c0-25.6 17.066667-42.666667 42.666667-42.666667l256 0c25.6 0 42.666667 17.066667 42.666667 42.666667l0 85.333333C682.666667 947.2 605.866667 1024 512 1024zM426.666667 810.666667l0 42.666667c0 46.933333 38.4 85.333333 85.333333 85.333333L512 938.666667c46.933333 0 85.333333-38.4 85.333333-85.333333l0-42.666667L426.666667 810.666667z" p-id="3499"></path><path d="M384 384C358.4 384 341.333333 366.933333 341.333333 341.333333c0-93.866667 76.8-170.666667 170.666667-170.666667 25.6 0 42.666667 17.066667 42.666667 42.666667s-17.066667 42.666667-42.666667 42.666667c-46.933333 0-85.333333 38.4-85.333333 85.333333C426.666667 366.933333 409.6 384 384 384z" p-id="3500"></path></svg>