<svg width="1941.8" height="553.23" xmlns="http://www.w3.org/2000/svg">
 <defs>
  <style>.cls-1{fill:url(#linear-gradient);}.cls-2{fill:url(#linear-gradient-2);}.cls-3{fill:url(#linear-gradient-3);}.cls-4{fill:#c0bfbe;}.cls-5{fill:#484748;}</style>
 </defs>
 <title>MongoDB_Gray_Logo_FullColor_RGB</title>
 <!-- <path class="cls-1" d="M162.47,579.26,148,574.47s1.84-73.22-24.56-78.35c-17.41-20.18,2.68-861.89,65.94-2.89,0,0-21.65,10.87-25.75,29.34S162.47,579.26,162.47,579.26Z" transform="translate(-29.22 -39.87)"/> -->
 <!-- <path class="cls-2" d="M170.27,508.55S296,425.75,266.54,253.79C238.17,128.86,171.21,87.79,164,72.11c-7.92-11.1-15.9-30.76-15.9-30.76l5.35,348.09S142.39,495.73,170.27,508.55Z" transform="translate(-29.22 -39.87)"/> -->
 <!-- <path class="cls-3" d="M140.65,513.17S22.72,432.73,29.51,290.79,119.58,79.05,135.8,66.39c10.49-11.18,10.92-15.49,11.73-26.52,7.35,15.79,6.13,235.85,6.91,261.57C157.47,401.57,148.9,494.27,140.65,513.17Z" transform="translate(-29.22 -39.87)"/> -->
 <!-- <path class="cls-4" d="M1486.29,249.26c6.75,0,32.41,1.18,44.33,1.18,22.24,0,37.73-1.18,79.43-1.18,35,0,64.35,9.42,85.4,27.46,25.42,22,38.92,52.56,38.92,89.83,0,53-24.23,83.55-48.45,100.81-24.23,18-55.61,28.24-100.49,28.24-23.83,0-64.75-.79-98.91-1.17H1486c-1.58-3.14,2.93-15.37,5.72-15.69,9.23-1,11.73-1.4,16-3.17,7.21-3,8.91-6.64,9.71-19.59,1.19-24.32.79-53.34.79-86.3,0-23.53.39-69.43-.4-83.94-1.19-12.16-6.35-15.3-16.68-17.65a221.86,221.86,0,0,0-22.24-3.53C1478.19,262.21,1484.3,251.61,1486.29,249.26Zm79.28,218.1c8.34,6.67,25,9.42,39.72,9.42,19.06,0,37.73-3.54,56-20,18.66-16.87,31.38-42.76,31.38-83.95,0-39.62-15.09-71.78-46.07-90.61-17.48-11-40.12-15.3-65.94-15.3-7.55,0-15.09.39-19.46,2.35-1.19.79-3.58,3.92-3.58,5.5-.79,7.06-.79,60.8-.79,92.57,0,32.56,0,78.06.79,83.56C1558,455.59,1560.4,463.83,1565.56,467.36Z" transform="translate(-29.22 -39.87)"/> -->
 <!-- <path class="cls-4" d="M1767.82,249.26c3.58,0,14.15,1.18,41.15,1.18,25.42,0,46.07-.78,70.7-.78,30.58,0,72.68,11,72.68,56.48,0,22.36-15.88,40.4-36.54,49-1.2.39-1.2,1.18,0,1.57,29.39,7.45,55.21,25.5,55.21,60,0,33.73-21,54.92-51.63,68.26-18.67,8.23-41.71,11-65.15,11-17.87,0-65.77-2-92.38-1.56-2.79-1.18,2.55-13.74,4.92-15.69a74.58,74.58,0,0,0,18-2.81c9.53-2.35,10.66-5.43,11.85-19.55.8-12.16.8-55.7.8-86.69,0-42.36.39-71,0-85.12-.4-11-4.37-14.52-11.92-16.48-6-1.17-15.88-2.35-23.82-3.53C1759.72,262.6,1765.83,250.83,1767.82,249.26Zm161.9,176.13c0-34.52-25.42-54.13-71.9-54.13-2,0-16.68-.4-20.25.39-1.19.39-2.38,1.17-2.38,2,0,24.72-.4,64.33.79,80,.79,6.67,5.57,16.08,11.52,18.83,6.36,3.53,20.65,4.32,30.58,4.32C1905.49,476.77,1929.72,461.47,1929.72,425.39Zm-90.16-156.9c-1.58.39-3.58,4.32-3.58,6.28-.39,14.12-.79,51-.79,76.48a2.53,2.53,0,0,0,2,2c5.16.4,17.87.79,28.59.79,15.1,0,23.84-2,28.6-4.32,12.71-6.27,18.66-20,18.66-34.91,0-34.13-23.83-47.07-59.17-47.07A105.81,105.81,0,0,0,1839.55,268.48Z" transform="translate(-29.22 -39.87)"/> -->
 <!-- <g transform="translate(0 0) scale(1 1)"> -->
 <!-- <path d="M76.8-110.5H128L0 110.3l-128-220.8h97.92L0-59.3l29.44-51.2H76.8z" fill="#41B883"/> -->
 <!-- <path d="M-128-110.5L0 110.3l128-220.8H76.8L0 21.98-77.44-110.5H-128z" fill="#41B883"/> -->
 <!-- <path d="M-77.44-110.5L0 22.62 76.8-110.5H29.44L0-59.3l-30.08-51.2h-47.36z" fill="#35495E"/> -->
 <!-- </g> -->
 <g>
  <title>background</title>
  <rect fill="none" id="canvas_background" height="402" width="582" y="-1" x="-1"/>
 </g>
 <g>
  <title>Layer 1</title>
  <g id="svg_1">
   <path id="svg_2" fill="#b6b599" d="m133.250001,539.390001l-14.47,-4.79s1.84,-73.22 -24.56,-78.35c-17.41,-20.18 2.68,-861.89 65.94,-2.89c0,0 -21.65,10.87 -25.75,29.34s-1.16,56.69 -1.16,56.69z"/>
   <path id="svg_3" fill="#439a45" d="m141.050001,468.680001s125.73,-82.8 96.27,-254.76c-28.37,-124.93 -95.33,-166 -102.54,-181.68c-7.92,-11.1 -15.9,-30.76 -15.9,-30.76l5.35,348.09s-11.06,106.29 16.82,119.11z"/>
   <path id="svg_4" fill="#54ab4e" d="m111.430001,473.300001s-117.93,-80.44 -111.14,-222.38s90.07,-211.74 106.29,-224.4c10.49,-11.18 10.92,-15.49 11.73,-26.52c7.35,15.79 6.13,235.85 6.91,261.57c3.03,100.13 -5.54,192.83 -13.79,211.73z"/>
  </g>
  <path stroke="#41b883" stroke-opacity="0" id="svg_6" d="m1239.727084,439.463284c-59.68,0 -80.94,-43.72 -80.94,-84.63c0,-28.58 11.7,-50.92 34.79,-66.41c16.41,-10.07 36,-15.87 53.69,-15.87c45.54,0 77.35,32.71 77.35,79.54c0,31.84 -12.71,57 -36.75,72.68c-11.53,7.07 -31.54,14.7 -48.14,14.7l0,-0.01zm-6.36,-150.23c-7.23,0 -14,1.89 -19,5.33c-13.79,8.38 -20.81,25.11 -20.81,49.68c0,46 23.07,78.16 56.1,78.16c9.74,0 17.69,-2.8 24.29,-8.56c10.15,-8.27 15.53,-25.16 15.53,-48.81c0,-45.34 -22.55,-75.8 -56.1,-75.8l-0.01,0z" fill="#41B883"/>
  <path id="svg_7" d="m1828.010391,444.463295c-59.68,0 -80.94,-43.72 -80.94,-84.63c0,-28.59 11.71,-50.93 34.8,-66.42c16.41,-10.07 36,-15.87 53.69,-15.87c45.54,0 77.36,32.71 77.36,79.53c0,31.85 -12.72,57 -36.76,72.68c-11.53,7.07 -31.53,14.7 -48.14,14.7l-0.01,0.01zm-6.35,-150.25c-7.24,0 -14,1.89 -19,5.33c-13.78,8.38 -20.81,25.1 -20.81,49.68c0,46 23.06,78.16 56.1,78.16c9.75,0 17.69,-2.8 24.29,-8.56c10.15,-8.27 15.53,-25.15 15.53,-48.8c0,-45.34 -22.54,-75.8 -56.1,-75.8l-0.01,-0.01z" class="cls-5" fill="#41B883"/>
  <path id="svg_8" d="m1631.627084,538.896632c-21.42,0 -36.86,-4.52 -50,-14.65c-12.83,-9.89 -18.57,-24.56 -18.57,-34.69a27.11,27.11 0 0 1 7,-17.64c3.74,-4.24 12.38,-12.17 32.35,-25.89a1.65,1.65 0 0 0 1,-1.57a1.63,1.63 0 0 0 -1.25,-1.63c-16.46,-6.3 -21.43,-16.63 -22.92,-22.23c0,-0.2 -0.09,-0.52 -0.17,-0.86c-0.47,-2.2 -0.91,-4.28 2.06,-6.41c2.3,-1.64 6,-3.83 9.93,-6.15c5.79,-3.41 12.34,-7.28 16,-10.39a2.6,2.6 0 0 0 -0.66,-4.07c-24.36,-8.18 -36.63,-26.25 -36.63,-53.78a53.54,53.54 0 0 1 22.51,-44.07c9.79,-7.73 34.39,-17 50.32,-17l0.93,0c16.39,0.39 25.63,3.82 38.42,8.55c6.94,2.57 13.52,3.61 22.71,3.61c13.57,0 19.49,-4.3 24.58,-9.23c0.29,0.61 1,2.55 1.3,7a26.42,26.42 0 0 1 -4.41,16.12c-2.78,3.84 -9.2,6.62 -15.27,6.62a17.14,17.14 0 0 1 -1.78,-0.09a50.47,50.47 0 0 1 -9.21,-1.54l-1.53,0.53c-0.48,0.7 -0.17,1.49 0.23,2.48a5.23,5.23 0 0 1 0.23,0.61a109.09,109.09 0 0 1 2.21,15c0,28.87 -11.4,41.46 -23.73,50.77a81.07,81.07 0 0 1 -41,15.83l0,0c-0.32,0 -1.78,0.13 -4.74,0.39c-1.91,0.17 -4.28,0.39 -4.63,0.39l-0.35,0c-2.69,0.76 -9.68,4.08 -9.68,10.25c0,5.14 3.17,11.5 18.27,12.64c3.06,0.23 6.35,0.46 9.78,0.69c19.94,1.39 44.84,3.11 56.55,7.09c16.12,5.87 26.15,20.29 26.15,37.63c0,25.91 -18.44,50.26 -49.32,65.15a107.19,107.19 0 0 1 -46.63,10.47l-0.05,0.07zm-2.33,-91.07a30.34,30.34 0 0 0 -14.94,3.69c-14.56,9.32 -21.31,18.63 -21.31,29.35c0,10.11 3.93,18.14 12.37,25.28c10.22,8.65 24,12.86 42.14,12.86c35.67,0 51.66,-19.16 51.66,-38.15c0,-13.21 -6.64,-22.07 -20.3,-27.08c-10.53,-3.84 -28.11,-6 -49.63,-6l0.01,0.05zm2.38,-154.94c-18.4,0 -30.28,14.51 -30.28,37c0,22.66 10.22,49.13 39,49.13c4.95,0 13.91,-2.2 18.35,-7.09c6.69,-6.14 11.06,-18.83 11.06,-32.23c0,-29.29 -14.27,-46.77 -38.16,-46.77l0.03,-0.04z" fill="#41B883"/>
  <path id="svg_9" d="m1545.323732,426.129969c-8.73,-1.18 -15.09,-2.35 -22.64,-5.88c-1.19,-0.78 -2.79,-4.32 -2.79,-5.49c-0.79,-12.16 -0.79,-47.46 -0.79,-70.61c0,-18.83 -3.17,-35.3 -11.12,-47.08c-9.53,-13.33 -23,-21.18 -40.51,-21.18c-15.49,0 -36.14,10.59 -53.22,25.11c-0.4,0.39 -3,2.88 -3,-1s0.66,-11.71 1,-16.65a8.55,8.55 0 0 0 -2.6,-7.27c-11.12,5.49 -42.44,12.93 -54,14.12c-8.45,1.63 -10.58,9.74 -1.58,12.55l0,0s0.09,0 0.14,0c9.42,2.83 15.77,5.86 20.51,9c3.57,2.75 3.18,6.67 3.18,9.81c0.4,26.28 0.4,66.69 -0.8,88.65c-0.4,8.63 -2.78,11.76 -9.14,13.34l0.58,-0.2a123.92,123.92 0 0 1 -14.7,2.75c-2,2 -2,13.33 0,15.69c4,0 24.23,-1.18 40.91,-1.18c23,0 35,1.18 40.91,1.18c2.38,-2.75 3.18,-13.34 1.59,-15.69a84.66,84.66 0 0 1 -16.29,-2.35c-6.36,-1.57 -7.95,-4.71 -8.34,-11.77c-0.79,-18.43 -0.79,-57.66 -0.79,-84.34c0,-7.45 2,-11 4.37,-12.95c7.94,-7.06 21,-11.76 32.57,-11.76c11.12,0 18.67,3.53 24.23,8.23c7.55,6.28 10.33,15.3 11.12,22c1.59,14.91 1.19,44.72 1.19,70.61c0,14.12 -1.19,17.65 -6.35,19.22c-2.38,1.18 -8.74,2.35 -16.29,3.14c-2.38,2.35 -1.59,13.33 0,15.69c10.33,0 22.25,-1.18 39.72,-1.18c21.85,0 35.75,1.18 41.31,1.18c2.41,-2.69 3.21,-12.94 1.62,-15.69z" fill="#41B883"/>
  <text stroke="null" transform="matrix(15.688544152118538,0,0,12.827484398406304,-10100.611190233752,-5067.394526896564) " xml:space="preserve" text-anchor="start" font-family="Helvetica, Arial, sans-serif" font-size="24" id="svg_14" y="428.89186" x="683.790914" stroke-opacity="null" stroke-width="0" fill="#484748">e</text>
  <text stroke="null" transform="rotate(0.6720794439315796 546.8615112304622,330.53509521484) matrix(14.431113163798102,0,0,12.293360565483338,-6936.572637269667,-3882.2458893765315) " xml:space="preserve" text-anchor="start" font-family="Helvetica, Arial, sans-serif" font-size="24" id="svg_15" y="350.998127" x="511.902394" stroke-opacity="null" stroke-width="0" fill="#484748">u</text>
  <text stroke="null" transform="matrix(15.69715863804738,0,0,11.991484002974786,-5218.602507958298,-3711.6853134282997) " xml:space="preserve" text-anchor="start" font-family="Helvetica, Arial, sans-serif" font-size="24" id="svg_16" y="345.339645" x="349.246489" stroke-opacity="null" stroke-width="0" fill="#484748">v</text>
  <text stroke="null" transform="matrix(17.041737897185598,0,0,14.080769142117058,-15445.724690048923,-4352.186167484588) " xml:space="preserve" text-anchor="start" font-family="Helvetica, Arial, sans-serif" font-size="24" id="svg_17" y="340.031882" x="954.65754" stroke-opacity="null" stroke-width="0" fill="#41b883">M</text>
 </g>
</svg>